<svg xmlns="http://www.w3.org/2000/svg" viewBox="0 0 474.91 272.77"><defs><style>.cls-1{fill:#008cff;}.cls-2{fill:#2c55ff;}.cls-3{fill:#020833;}.cls-4{fill:#022ad3;}</style></defs><g id="Camada_2" data-name="Camada 2"><g id="Camada_1-2" data-name="Camada 1"><rect class="cls-1" y="2.65" width="90.84" height="60.67"/><rect class="cls-2" y="62.2" width="90.84" height="35.13"/><path class="cls-3" d="M224.57,113.61q-17.49,12.75-44.06,12.75-29.5,0-47.89-16.93T114.23,63.36q0-28.77,19.21-46.06T182.14,0Q202.9,0,218,7.65v28q-17.47-10-35.87-10-17.29,0-27.49,10.29t-10.19,27.4q0,17.3,10,27.49t27.31,10.2a52,52,0,0,0,15.48-2.37V75.56H177.41V51.71h47.16Z"/><path class="cls-3" d="M289.2,124.9H247.33V2.19h42.24q27.66,0,45.33,17t17.66,42.33q0,29.49-17.39,46.43T289.2,124.9Zm-.54-99.59H276.09V102h12.75Q305.77,102,315,91.4t9.2-29.86q0-16.38-9.29-26.31T288.66,25.31Z"/><path class="cls-3" d="M399.72,124.9h-28V2.19h30.77L431,53q6,10.76,10.47,20.12a137.57,137.57,0,0,1,5.74,13.2l1.46,4Q446.87,76.84,446.88,53V2.19h28V124.9H444.14L414.83,74.1Q409,64.28,404.54,54.71t-6.1-14.11L397,36.05a234,234,0,0,1,2.73,38.05Z"/><path class="cls-3" d="M27,174.27A15.64,15.64,0,0,1,17.53,177q-6.84,0-11-4T2.33,162a14.64,14.64,0,0,1,4.22-10.88A14.6,14.6,0,0,1,17.27,147a16.91,16.91,0,0,1,8.48,1.95v4.58a15.36,15.36,0,0,0-8.31-2.33,10,10,0,0,0-7.55,3,12.36,12.36,0,0,0-.05,15.8,10.41,10.41,0,0,0,7.82,2.9,12.84,12.84,0,0,0,4.93-1v-8H16.66V160H27v14h0Z"/><path class="cls-3" d="M51.55,176.65H35.14V147.48H39.6v25.23H51.55Z"/><path class="cls-3" d="M80.12,151q3.59,4.08,3.59,10.93T80.1,172.89A12.35,12.35,0,0,1,70.34,177a12.44,12.44,0,0,1-9.77-4.11q-3.66-4.11-3.65-10.95T60.55,151a12.36,12.36,0,0,1,9.74-4.11A12.4,12.4,0,0,1,80.12,151Zm-16.21,3a12.43,12.43,0,0,0-2.32,7.95,12.28,12.28,0,0,0,2.38,8,7.78,7.78,0,0,0,6.37,2.94,7.68,7.68,0,0,0,6.4-2.9q2.3-2.9,2.3-8c0-3.38-.78-6-2.32-8a7.79,7.79,0,0,0-6.43-2.9A7.68,7.68,0,0,0,63.91,154Z"/><path class="cls-3" d="M102.24,176.65H91V147.48h9.56a11.14,11.14,0,0,1,7.23,2.14,6.92,6.92,0,0,1,2.64,5.65,6.85,6.85,0,0,1-1.36,4.24,6.08,6.08,0,0,1-3.49,2.34,7,7,0,0,1,4,2.21,6.78,6.78,0,0,1,1.62,4.76,7.37,7.37,0,0,1-2.36,5.65A9.44,9.44,0,0,1,102.24,176.65Zm-2-25.49H95.48v9h4a7.45,7.45,0,0,0,4.83-1.32,4.28,4.28,0,0,0,1.58-3.44,3.74,3.74,0,0,0-1.41-3A6.56,6.56,0,0,0,100.25,151.16Zm.51,12.59H95.48V173h5.72q5.49,0,5.49-4.54A4.2,4.2,0,0,0,105.2,165,6.78,6.78,0,0,0,100.76,163.75Z"/><path class="cls-3" d="M121.24,176.65h-4.72l10.09-29.17h5.84l10,29.17h-4.77l-2.29-7.14H123.58Zm4-12.33-.47,1.47h9.35l-.48-1.47Q132,159.2,131,155.85t-1.26-4.17l-.21-.83Q129,152.89,125.26,164.32Z"/><path class="cls-3" d="M165.48,176.65H149.07V147.48h4.46v25.23h11.95Z"/><path class="cls-3" d="M12.68,224.54H3.5V195.37h9.09a14.68,14.68,0,0,1,10.65,4,13.66,13.66,0,0,1,4.16,10.26,15.06,15.06,0,0,1-3.92,10.69Q19.57,224.54,12.68,224.54Zm-.17-25.36H8.05v21.59h4.58c3.32,0,5.85-1,7.58-3.11a12.11,12.11,0,0,0,2.6-8A10.48,10.48,0,0,0,20,202.16,9.78,9.78,0,0,0,12.51,199.18Z"/><path class="cls-3" d="M51.38,224.54H34.54V195.37H51.16v3.72H39v9H49.77v3.72H39v9H51.38Z"/><path class="cls-3" d="M72.24,224.54H67l-9.83-29.17h4.76L65.62,207c.8,2.48,1.54,4.85,2.2,7.12S69,218,69.21,219l.43,1.56c.92-3.46,2.31-8,4.16-13.59l3.76-11.6h4.76Z"/><path class="cls-3" d="M105.79,224.54H89V195.37h16.62v3.72H93.41v9h10.77v3.72H93.41v9h12.38Z"/><path class="cls-3" d="M129.77,224.54H113.36V195.37h4.46V220.6h12Z"/><path class="cls-3" d="M158.33,198.89q3.6,4.1,3.6,10.93t-3.62,11a13.62,13.62,0,0,1-19.52,0q-3.66-4.11-3.66-11t3.64-10.9a13.7,13.7,0,0,1,19.56,0Zm-16.21,3a12.48,12.48,0,0,0-2.31,7.94,12.29,12.29,0,0,0,2.38,8,8.44,8.44,0,0,0,12.77,0q2.29-2.9,2.29-8c0-3.37-.77-6-2.31-8a7.79,7.79,0,0,0-6.43-2.9A7.71,7.71,0,0,0,142.12,201.88Z"/><path class="cls-3" d="M177.86,214.19H173.7v10.35h-4.46V195.37h8.36a11.4,11.4,0,0,1,8,2.66,8.77,8.77,0,0,1,2.94,6.82,8.53,8.53,0,0,1-3,6.75A11.24,11.24,0,0,1,177.86,214.19Zm-.44-15.14H173.7v11.47h3.81a6.83,6.83,0,0,0,4.83-1.56,5.37,5.37,0,0,0,1.66-4.11,5.49,5.49,0,0,0-1.69-4.25A6.94,6.94,0,0,0,177.42,199.05Z"/><path class="cls-3" d="M199.24,224.54h-4.42l2.25-29.17h5.28l3.9,10.64c.69,1.82,1.39,3.75,2.08,5.78s1.21,3.62,1.56,4.74l.56,1.69q2-5.88,4.37-12.21l4.07-10.64h5.28l2.68,29.17h-4.41l-1-11.43-.91-11.68q-2,5.49-4.24,11.68L212.18,224h-3.51l-3.93-10.87L200.8,201.6q0,1.91-.7,11.51Z"/><path class="cls-3" d="M251.79,224.54H235V195.37h16.62v3.72H239.41v9h10.78v3.72H239.41v9h12.38Z"/><path class="cls-3" d="M263.82,224.54h-4.46V195.37h5.28l7.19,12.2q2,3.42,3.61,6.32c1.08,1.94,1.83,3.29,2.23,4.07l.61,1.21c-.18-2.62-.26-6.48-.26-11.55V195.37h4.46v29.17H277.2L270,212.38q-2-3.3-3.57-6.21c-1.09-1.95-1.84-3.36-2.28-4.23l-.65-1.25q.36,4.34.35,11.64Z"/><path class="cls-3" d="M308.49,199.09h-7.66v25.45h-4.46V199.09h-7.62v-3.72h19.74Z"/><path class="cls-3" d="M8,272.43H3.5V243.25H8.78L16,255.46q2,3.42,3.61,6.32c1.08,1.93,1.83,3.29,2.23,4.07l.61,1.21c-.18-2.62-.26-6.48-.26-11.56V243.25h4.46v29.18H21.34l-7.23-12.16q-1.95-3.3-3.57-6.22c-1.09-1.94-1.84-3.35-2.28-4.22l-.65-1.25c.23,2.88.35,6.77.35,11.64Z"/><path class="cls-3" d="M51.94,272.43H35.1V243.25H51.72V247H39.56v9H50.34v3.72H39.56v9H51.94Z"/><path class="cls-3" d="M77,247H69.38v25.45H64.92V247H57.31v-3.73H77Z"/><path class="cls-3" d="M94.53,272.43H89.16L81.5,243.25h4.63L88.86,254l3.2,13.68Q94,260.44,95.87,254l3-10.34h3.94l3.07,10.38,3.94,13.73q1.6-7.89,3-13.73l2.55-10.82h4.5l-7.14,29.18h-5.32l-2.77-9.22-3.77-13c-.66,2.74-1.88,7.08-3.63,13Z"/><path class="cls-3" d="M148.51,246.78q3.59,4.09,3.59,10.93t-3.61,11a13.66,13.66,0,0,1-19.53,0q-3.65-4.11-3.65-11t3.63-10.91a13.73,13.73,0,0,1,19.57,0Zm-16.21,3a14.64,14.64,0,0,0,.06,15.91,8.44,8.44,0,0,0,12.77,0q2.3-2.89,2.3-8c0-3.38-.78-6-2.32-8a8.5,8.5,0,0,0-12.81,0Z"/><path class="cls-3" d="M163.88,272.43h-4.46V243.25h8.13q5,0,7.75,2.45a8.46,8.46,0,0,1,2.73,6.64,9.06,9.06,0,0,1-1.56,5.22,8.39,8.39,0,0,1-4.2,3.09l7.62,11.78h-5.32l-6.84-11.08h-3.85Zm3.8-25.45h-3.8v10.64h4a5.62,5.62,0,0,0,4.2-1.45,5.26,5.26,0,0,0,1.43-3.87Q173.53,247,167.68,247Z"/><path class="cls-3" d="M190.63,272.43h-4.46V243.25h4.46Zm17.22,0h-5.62l-11-14.42,10.6-14.76h5.41L196.51,258Z"/><rect class="cls-4" y="96.09" width="90.84" height="26.37"/></g></g></svg>